<?xml version="1.0" encoding="utf-8"?>
<!-- Generator: Adobe Illustrator 23.0.5, SVG Export Plug-In . SVG Version: 6.00 Build 0)  -->
<svg version="1.1" xmlns="http://www.w3.org/2000/svg" xmlns:xlink="http://www.w3.org/1999/xlink" x="0px" y="0px"
	 viewBox="0 0 1610 501" style="enable-background:new 0 0 1610 501;" xml:space="preserve">
<style type="text/css">
	.st0{fill:#FFFFFF;}
	.st1{fill:#879A96;}
	.st2{fill:#EFEFF1;}
	.st3{fill:#081116;}
	.st4{fill:#F9EDDD;}
	.st5{fill:#E2272E;}
	.st6{fill:#FCFAED;}
	.st7{fill:#F1A4B0;}
	.st8{fill:#387196;}
	.st9{fill:#69ADCD;}
	.st10{fill:#366CA0;}
	.st11{fill:#FAF4E7;}
	.st12{fill:#DED9CD;}
	.st13{fill:#F49C9E;}
	.st14{fill:#242323;}
	.st15{fill:#F7A9DD;}
	.st16{fill:#BFAFAA;}
	.st17{fill:#6BDFB0;}
	.st18{fill:#BFA2A7;}
	.st19{fill:#F04E20;}
	.st20{fill:#80947B;}
	.st21{fill:#43A5E5;}
	.st22{fill:#EEA339;}
	.st23{fill:#4D519A;}
	.st24{fill:#646ACB;}
	.st25{fill:#F15546;}
	.st26{fill:#E94B3F;}
	.st27{fill:#DD403A;}
	.st28{fill:#8398FF;}
	.st29{fill:#7F626E;}
	.st30{fill:#EFA555;}
	.st31{fill:#302F35;}
	.st32{display:none;fill:#313131;}
	.st33{display:none;fill:#F2B7D2;}
	.st34{display:none;}
	.st35{display:inline;fill:#1A2126;}
	.st36{display:none;fill:#F49C9E;}
	.st37{fill:#5C5BA5;stroke:#000000;stroke-miterlimit:10;}
	.st38{fill:#D25382;stroke:#000000;stroke-miterlimit:10;}
	.st39{fill:#F16345;stroke:#000000;stroke-miterlimit:10;}
	.st40{fill:#F6B444;stroke:#000000;stroke-miterlimit:10;}
	.st41{fill:#FDF6EA;stroke:#000000;stroke-miterlimit:10;}
	.st42{fill:#1A2126;}
	.st43{fill:#FCF9EC;}
	.st44{fill:none;stroke:#000000;stroke-miterlimit:10;}
	.st45{fill:#EC9AC7;}
	.st46{stroke:#000000;stroke-miterlimit:10;}
</style>
<g id="Layer_1">
</g>
<g id="Layer_2">
	<g id="Fonty_1_" class="st34">
		<path class="st35" d="M97,109.6c-15.8,19-24.5,42.3-33.7,64.8C45.8,217.3,17.9,256,6.2,301.3c-4.1,15.9-5.7,32.3-4.3,48.6
			c2.1,25.2,13.3,49,33.8,64.5c16.8,12.7,37,16.9,57.2,21.1c61.1,12.4,124.6,10.3,183.5-12.2c25.5-9.8,46.3-22.9,56.2-49.6
			c11.2-30.3,9.1-70-17.6-88.1c-12.2-8.3-27.2-10.7-41.6-9.3c-35.8,3.5-86.1,40.3-120,15.4c-11.9-8.8-16.5-23.3-16.4-37.6
			c0.2-18.3,7-36.3,12.1-53.6c5.6-19.3,11.9-38.4,17.8-57.5c4.9-15.8,10.8-39.7-4.1-52.5c-18.9-16.2-42.9-3.4-58.2,11.2
			C101.8,104.1,99.3,106.8,97,109.6z"/>
		<path class="st35" d="M469.3,246.5c4.6,4.6,9.5,8.9,15,12.8c32,23.1,77.4,30.8,113.3,12.2c42.5-22,61.5-70.7,67.4-115.7
			c1.5-11.4,2.1-23,2.5-34.5c0.8-25.2,2.7-51.6-6.7-75.7c-7.6-19.5-24.6-36.7-45.4-38.5c-23.8-2-45.4,16.8-54.8,38.8
			s-9.5,46.7-10,70.6c-0.3,15.2-1.1,30.9-7.9,44.4c-6.1,12-18.1,22.3-32.1,22c-18-0.3-29.4-16.4-33.9-32.2c-4.3-14.7-4.4-30.4-9-45
			c-6.1-19.7-24.3-30.3-40.9-14.1c-18.2,17.9-7.9,46.5-2.2,67.4c7.3,27,17.5,53.9,34.9,76.1C462.5,239.2,465.8,243,469.3,246.5z"/>
		<path class="st35" d="M897.4,430.6c-10.1-32.2-34-58.4-54.3-84.6c-11.7-15.1-22.9-30.8-32.2-47.6c-9.5-17-34.8-53.5-7.3-67.3
			c13.1-6.6,27.9-9.7,40.8-16.7c27.4-15.1,42.7-47.5,40.8-78.2c-2-31.8-21.1-61.1-46.7-79.1c-36.2-25.5-90-28.3-123,1.2
			c-22.5,20.1-32,49.9-39,78.6c-0.7,3-1.4,6-2.1,8.9c-8.7,37.2-15.8,74.7-25.2,111.8c-4,15.8-10.6,30.4-19.1,44.2
			c-7.2,11.6-17.2,22.6-22.4,35.4c-8.6,21.3,1.2,53,28.8,49.2c9.9-1.4,18.1-8.2,24-15.9c15.3-19.7,16.9-45.1,26.9-67.1
			c7.4-16.5,26.7-18,38.3-4.4c14.4,16.9,13.8,46.4,18,67.3c4.9,24.3,11.4,48.7,23.5,70.6c14.5,26.1,40.2,49.9,70.7,54.5
			c16.6,2.5,35.8-1.1,48.9-12.1C901.1,466.9,902.8,447.8,897.4,430.6z M783,158.9c-2.9-0.1-5.7-0.5-8.6-1.1
			c-4.2-0.9-9.9-2.9-10.8-7.7c0-0.2-0.1-0.4-0.1-0.6c-0.6-4.6,2-10.4,4.5-14.2c2.7-4.2,6.9-7.3,12-6.2c5.4,1.1,10.6,4.9,14,9.1
			c3.9,4.7,5.7,12.2,1.6,16.8C792.7,158.5,787.6,159.1,783,158.9z"/>
		<path class="st35" d="M986.2,286.2c-17.7-3.1-34.7,6.8-50.9,14.7c-7.3,3.6-14.9,6.9-23,7.2c-8.1,0.3-16.8-2.8-21.1-9.7
			c-5.3-8.6-1.9-19.6,6.5-24.6c7.9-4.7,16.3-1.6,24.9-2.1c17.4-0.9,40.5-5.7,49.5-22.3c3.2-5.8,4.3-12.6,3.9-19.2
			c-1.5-25.8-26.8-46.6-52.6-47.1c-25.9-0.6-50.2,16.1-63.1,38.6c-12.9,22.4-15.7,49.6-12.5,75.2c4.5,35.8,22.9,72.9,56.4,86.6
			c10.3,4.2,21.6,6,32.7,6.4c19.3,0.6,39.1-3.2,55.2-13.8c16.1-10.7,27.7-28.9,27.4-48.2C1019.2,308.6,1005.2,289.5,986.2,286.2z
			 M910.1,231c0.8-4.1,4.4-7.1,8.3-8.5c2.6-0.9,5.5-1.2,8.2-0.4c2.7,0.8,5,2.7,6,5.4c1.4,4.1-1.1,8.8-4.9,11.1
			C921.4,242.2,908,241.7,910.1,231z"/>
		<path class="st35" d="M991.2,256.3c0.6,9.4,2.1,19.6,9.2,25.8c4.5,3.9,10.5,5.4,16.3,6.8c12.3,3,28.3,4.5,34.7-6.5
			c3.4-5.9,2.4-13.2,1.6-20c-1.7-13.7-2.4-28.2,3.1-40.9c5.4-12.7,18.4-23.2,32.2-21.5c10.7,1.3,19.6,9.8,23.8,19.7
			c4.2,10,4.2,21.2,2.7,31.9c-4.1,27.6-18.3,53.3-19.8,81.2c-0.3,5.2,0,10.8,2.7,15.3c2.6,4.4,7.2,7.3,11.9,9.4
			c24.8,11.3,55.3,6.1,77.2-10.1c21.9-16.2,35.6-41.9,40.8-68.6c5.2-26.7,2.4-54.5-3.8-81c-3.6-15.2-8.5-30.4-17.5-43.1
			c-15.5-21.8-42.5-34.1-69.2-34.1c-21.6,0-42.2,7.6-59.6,20.2c-8.8,6.4-16.8,14-24,22.1c-3.9,4.4-16.2,20.3-23.1,14.3
			c-1.5-1.3-2.1-3.5-1.9-5.5c1.1-11.1,16-33.3,1.3-41.1c-2.8-1.5-6.2-1.5-9.4-1.2c-7,0.6-14.4,2.4-19.3,7.5
			c-6.1,6.3-4.6,16-4.7,23.9c-0.3,15.3-3.7,30.2-4.9,45.4C990.2,222.9,990.1,239.7,991.2,256.3z"/>
		<path class="st35" d="M1330.8,122.5c-22.9-7.2-47.7-1.6-66.4,14.1c-22,18.5-28.7,44.6-27.7,72.4c0.5,13.6,2.2,27.1,2.6,40.7
			c1.2,38.2-18.2,73.6-33.3,108.7c-12.1,28.2,11.1,49,35.1,59c31.8,13.3,67.7,12.2,98.5-3.1c26-12.9,53.7-34.3,62.7-63.4
			c4.1-13.5,4.1-29.3-6.6-39.9c-10.7-10.5-26.6-9.7-38.4-1.5c-15.7,10.9-32.7,34.7-53.6,20.1c-21.4-15-19.9-47.9-14.6-70.2
			c5.4-22.6,12-49.4,29-66.1c4.5-4.4,11.2-10.2,17.1-4.4c5.2,5.1,5.7,14.1,7.8,20.7c4.3,13.6,10.5,29.2,27.8,24.6
			c24.9-6.6,23.5-36.5,16-56.2c-8.5-22.4-25.7-42.1-47.8-52.3C1336.4,124.5,1333.6,123.4,1330.8,122.5z"/>
		<path class="st35" d="M1608.7,292.4c-1.1-68.2-36.1-128.5-86.1-123.2c-45.9,4.8-57.4,91.3-51.1,143.7c1.4,11.5,3.3,23,7,33.4
			c9.3,26.4,29.1,42.6,49.3,47.4c27,6.5,57.7-7.7,71.7-41.9C1606.8,334.1,1609,312.9,1608.7,292.4z M1549.9,301.2
			c-1.4,5.8-4.4,14.5-9,15.8c-7,2-10.5-11-12.1-18.6c-2.4-11.5-2.1-24.2,1-35.3c8.5-29.6,19.3-9.3,21.6,13.3
			C1552.3,284.7,1551.8,293.3,1549.9,301.2z"/>
		<path class="st35" d="M1408.6,286.2c-1.1,10-1.9,20.3,0.2,30.1s7.4,19.5,16,24.7c8.6,5.2,20.9,4.9,28-2.2c5.6-5.6,7.2-14,7.9-21.9
			c1.1-11.4,0.9-22.9,0.7-34.4c-0.2-13.9-0.4-28.1-4.5-41.4c-1.9-6.1-4.6-12.1-9-16.8c-10.2-10.8-28.7-10.2-30.5,6
			C1415.3,249,1410.6,267.4,1408.6,286.2z"/>
		<path class="st35" d="M1417.6,164.1c-3.3,3.3-5.7,7.7-6.6,12.4c-1.4,7.8,1.2,16.1,6.3,22.1c6.5,7.6,17.7,11.7,27.5,8.4
			c10.9-3.8,16.8-16.7,12.8-27.5c-2.9-7.9-7.8-15.4-15.2-19.7C1433.7,154.9,1424,157.7,1417.6,164.1z"/>
		<path class="st35" d="M475.4,338.5c-3.3-69.4-42.4-131.3-81-189.1c-20.8-31.2-52.9-54.3-91.5-35.2c-30.5,15-54.1,62.5-71.8,90
			c-5.4,8.4-10.8,17.2-12.1,27.1c-1.3,9.9,2.6,21.1,11.6,25.4c5.1,2.4,10.9,2.3,16.4,1.4c13.9-2.3,26.6-9.4,40-13.8
			c13.4-4.4,29.3-5.7,40.7,2.8c10.8,8,14.3,22.3,17.1,35.4c3.5,16.2,7,32.4,10.5,48.5c4.5,20.8,9.2,42.2,21.1,59.8
			c11.9,17.6,32.9,30.9,53.9,27.3c16.5-2.8,30.1-15.5,37.2-30.6C474.7,372.4,476.2,355.2,475.4,338.5z M340.7,186.6
			c-0.5,4.4-2.7,8.7-6.4,11.1c-4.2,2.7-10.4,2.6-13.7-1.4c-3.4-4.1-3.6-10.6-2.9-15.4c1-6.8,4.4-13.2,9.6-15.1
			c5.3-1.9,9.5,3.8,11.2,7.9C340.2,177.8,341.3,182.2,340.7,186.6z"/>
	</g>
	<g id="Fonts_1_">
		<g id="Fonty_10_">
			<path class="st37" d="M167.1,154.4c-14.2,17.1-22,38.1-30.3,58.4c-15.8,38.7-41,73.6-51.5,114.3c-3.7,14.3-5.1,29.1-3.9,43.8
				c1.9,22.7,12,44.2,30.4,58.1c15.2,11.5,33.3,15.3,51.6,19c55,11.2,112.3,9.3,165.3-11c22.9-8.8,41.8-20.6,50.6-44.7
				c10.1-27.3,8.2-63.1-15.9-79.4c-11-7.4-24.5-9.6-37.5-8.4c-32.3,3.1-77.6,36.3-108.1,13.9c-10.7-7.9-14.9-21-14.8-33.9
				c0.1-16.5,6.3-32.7,10.9-48.3c5.1-17.4,10.7-34.6,16-51.8c4.4-14.3,9.7-35.8-3.7-47.3c-17-14.6-38.7-3.1-52.5,10.1
				C171.4,149.5,169.2,151.9,167.1,154.4z"/>
			<path class="st37" d="M502.5,277.8c4.1,4.2,8.6,8,13.5,11.5c28.9,20.8,69.7,27.8,102.1,11c38.3-19.8,55.4-63.7,60.7-104.3
				c1.3-10.3,1.9-20.7,2.2-31.1c0.7-22.7,2.4-46.5-6-68.2c-6.8-17.6-22.1-33.1-40.9-34.7c-21.5-1.8-40.9,15.1-49.4,34.9
				s-8.5,42-9,63.6c-0.3,13.7-1,27.8-7.1,40c-5.5,10.8-16.3,20.1-28.9,19.9c-16.2-0.3-26.5-14.8-30.6-29c-3.9-13.3-4-27.4-8.1-40.6
				c-5.5-17.7-21.9-27.3-36.8-12.7c-16.4,16.1-7.1,41.9-1.9,60.8c6.6,24.3,15.8,48.6,31.4,68.6C496.4,271.2,499.4,274.6,502.5,277.8
				z"/>
			<path class="st37" d="M888.3,443.7c-9.1-29-30.7-52.7-48.9-76.3c-10.6-13.6-20.6-27.8-29-42.8c-8.5-15.3-31.4-48.2-6.5-60.6
				c11.8-5.9,25.1-8.7,36.7-15.1c24.7-13.6,38.5-42.8,36.7-70.5c-1.8-28.7-19-55.1-42-71.3c-32.6-23-81.1-25.5-110.9,1.1
				c-20.3,18.1-28.8,45-35.1,70.8c-0.7,2.7-1.3,5.4-1.9,8c-7.9,33.5-14.3,67.3-22.7,100.7c-3.6,14.2-9.5,27.4-17.2,39.8
				c-6.5,10.5-15.5,20.4-20.2,31.9c-7.8,19.2,1.1,47.8,26,44.3c8.9-1.2,16.3-7.4,21.7-14.3c13.8-17.8,15.2-40.6,24.2-60.5
				c6.7-14.8,24-16.2,34.5-3.9c13,15.2,12.4,41.8,16.2,60.6c4.4,21.9,10.2,43.9,21.1,63.6c13,23.6,36.3,45,63.7,49.1
				c15,2.2,32.2-1,44-10.9C891.6,476.4,893.1,459.2,888.3,443.7z M785.2,198.9c-2.6-0.1-5.2-0.4-7.7-1c-3.8-0.8-8.9-2.6-9.8-6.9
				c0-0.2-0.1-0.4-0.1-0.5c-0.6-4.1,1.8-9.4,4-12.8c2.4-3.8,6.2-6.5,10.8-5.6c4.9,1,9.6,4.4,12.6,8.2c3.5,4.3,5.1,11,1.5,15.1
				C793.9,198.5,789.3,199,785.2,198.9z"/>
			<path class="st37" d="M968.3,313.5c-16-2.8-31.3,6.1-45.8,13.2c-6.6,3.2-13.5,6.2-20.8,6.5s-15.1-2.5-19-8.8
				c-4.8-7.8-1.7-17.7,5.9-22.1c7.1-4.2,14.7-1.5,22.4-1.9c15.6-0.8,36.5-5.1,44.6-20.1c2.8-5.2,3.8-11.3,3.5-17.3
				c-1.4-23.3-24.1-42-47.4-42.5c-23.3-0.5-45.2,14.6-56.9,34.7c-11.7,20.2-14.1,44.7-11.3,67.8c4,32.3,20.7,65.7,50.8,78
				c9.3,3.8,19.4,5.4,29.5,5.7c17.4,0.6,35.3-2.8,49.7-12.5c14.5-9.6,24.9-26.1,24.7-43.4C998,333.7,985.4,316.6,968.3,313.5z
				 M899.7,263.9c0.7-3.7,4-6.4,7.5-7.6c2.4-0.8,5-1.1,7.4-0.4c2.4,0.7,4.5,2.5,5.4,4.8c1.3,3.7-1,8-4.4,10
				C909.9,273.9,897.8,273.4,899.7,263.9z"/>
			<path class="st37" d="M972.8,286.6c0.6,8.4,1.9,17.7,8.3,23.2c4.1,3.5,9.5,4.9,14.7,6.1c11.1,2.7,25.5,4,31.3-5.8
				c3.1-5.3,2.2-11.9,1.4-18c-1.6-12.4-2.1-25.4,2.8-36.9c4.9-11.5,16.6-20.9,29-19.3c9.7,1.2,17.7,8.8,21.5,17.8s3.8,19.1,2.4,28.7
				c-3.7,24.9-16.5,48-17.8,73.1c-0.2,4.7,0,9.7,2.4,13.8c2.4,4,6.5,6.6,10.7,8.5c22.3,10.2,49.8,5.5,69.6-9.1s32.1-37.7,36.8-61.8
				c4.7-24.1,2.2-49.1-3.5-73c-3.2-13.7-7.6-27.4-15.8-38.9c-13.9-19.6-38.3-30.7-62.3-30.7c-19.5,0-38,6.8-53.7,18.2
				c-7.9,5.8-15.1,12.6-21.6,19.9c-3.5,3.9-14.6,18.3-20.8,12.9c-1.4-1.2-1.8-3.2-1.7-5c1-10,14.4-30,1.2-37
				c-2.6-1.4-5.6-1.3-8.5-1.1c-6.3,0.5-13,2.2-17.4,6.7c-5.5,5.7-4.1,14.4-4.3,21.5c-0.3,13.8-3.3,27.2-4.4,40.9
				C971.9,256.5,971.8,271.6,972.8,286.6z"/>
			<path class="st37" d="M1278.8,166.1c-20.6-6.5-43-1.5-59.9,12.7c-19.8,16.7-25.8,40.1-24.9,65.2c0.4,12.2,2,24.4,2.4,36.6
				c1.1,34.5-16.4,66.3-30,98c-10.9,25.4,10,44.1,31.6,53.2c28.7,12,61,11,88.8-2.8c23.4-11.7,48.4-30.9,56.4-57.1
				c3.7-12.1,3.7-26.4-6-35.9c-9.6-9.5-24-8.7-34.6-1.4c-14.1,9.8-29.5,31.3-48.3,18.1c-19.3-13.5-17.9-43.1-13.1-63.3
				c4.8-20.3,10.8-44.5,26.1-59.6c4-4,10.1-9.2,15.4-4c4.7,4.6,5.1,12.7,7,18.7c3.9,12.3,9.4,26.3,25.1,22.2
				c22.4-5.9,21.2-32.9,14.4-50.6c-7.7-20.2-23.2-37.9-43.1-47.2C1283.8,167.8,1281.3,166.9,1278.8,166.1z"/>
			<path class="st37" d="M1529.1,319.1c-1-61.4-32.5-115.8-77.6-111c-41.3,4.4-51.7,82.3-46,129.4c1.3,10.4,3,20.7,6.3,30.1
				c8.4,23.8,26.2,38.4,44.4,42.7c24.3,5.8,52-7,64.6-37.7C1527.4,356.7,1529.4,337.6,1529.1,319.1z M1476.2,327.1
				c-1.3,5.3-3.9,13.1-8.1,14.3c-6.3,1.8-9.5-9.9-10.9-16.8c-2.1-10.3-1.9-21.8,0.9-31.8c7.7-26.7,17.4-8.4,19.4,12
				C1478.3,312.2,1477.9,320,1476.2,327.1z"/>
			<path class="st37" d="M1348.8,313.5c-1,9-1.7,18.3,0.2,27.2c1.9,8.9,6.6,17.6,14.4,22.2c7.8,4.7,18.8,4.5,25.2-2
				c5.1-5,6.5-12.6,7.1-19.7c1-10.3,0.8-20.7,0.7-31c-0.2-12.6-0.4-25.3-4-37.3c-1.7-5.5-4.1-10.9-8.1-15.1
				c-9.2-9.8-25.8-9.2-27.5,5.4C1354.9,280.1,1350.7,296.6,1348.8,313.5z"/>
			<path class="st37" d="M1356.9,203.6c-3,3-5.2,6.9-5.9,11.2c-1.3,7,1,14.5,5.7,19.9c5.8,6.8,16,10.6,24.8,7.5
				c9.8-3.4,15.1-15,11.6-24.7c-2.6-7.1-7-13.9-13.7-17.7C1371.5,195.3,1362.7,197.8,1356.9,203.6z"/>
			<path class="st37" d="M508,360.7c-3-62.5-38.2-118.3-73-170.4c-18.8-28.1-47.6-48.9-82.5-31.7c-27.5,13.6-48.8,56.3-64.7,81
				c-4.9,7.5-9.7,15.5-10.9,24.4c-1.2,8.9,2.4,19.1,10.5,22.9c4.6,2.2,9.9,2.1,14.8,1.3c12.6-2.1,23.9-8.5,36-12.5
				c12.1-4,26.4-5.1,36.7,2.5c9.7,7.2,12.9,20.1,15.4,31.9c3.2,14.6,6.3,29.1,9.5,43.7c4.1,18.7,8.3,38,19,53.9
				c10.7,15.9,29.6,27.8,48.6,24.6c14.8-2.5,27.1-14,33.5-27.6C507.4,391.2,508.7,375.7,508,360.7z M386.7,223.8
				c-0.5,3.9-2.5,7.8-5.8,10c-3.8,2.4-9.4,2.3-12.4-1.3c-3.1-3.7-3.2-9.5-2.6-13.9c0.9-6.1,3.9-11.9,8.6-13.6
				c4.8-1.7,8.5,3.4,10.1,7.1C386.2,215.9,387.2,219.9,386.7,223.8z"/>
		</g>
		<g id="Fonty_9_">
			<path class="st38" d="M152.5,145.5c-14.5,17.5-22.6,38.9-31,59.7c-16.1,39.5-41.9,75.2-52.6,116.9c-3.8,14.6-5.3,29.8-4,44.8
				c1.9,23.3,12.3,45.2,31.1,59.4c15.5,11.7,34.1,15.6,52.7,19.4c56.3,11.4,114.9,9.5,169.1-11.3c23.5-9,42.7-21.1,51.8-45.7
				c10.3-27.9,8.4-64.5-16.2-81.2c-11.2-7.6-25-9.8-38.4-8.6c-33,3.2-79.4,37.2-110.6,14.2c-11-8.1-15.2-21.5-15.1-34.7
				c0.1-16.8,6.5-33.5,11.2-49.4c5.2-17.7,10.9-35.3,16.4-53c4.5-14.6,9.9-36.6-3.8-48.4c-17.4-14.9-39.6-3.2-53.7,10.3
				C156.9,140.5,154.6,143,152.5,145.5z"/>
			<path class="st38" d="M495.6,271.8c4.2,4.3,8.8,8.2,13.8,11.8c29.5,21.3,71.3,28.4,104.4,11.3c39.2-20.3,56.7-65.2,62.1-106.7
				c1.4-10.6,1.9-21.2,2.3-31.8c0.7-23.3,2.5-47.6-6.2-69.7c-7-18-22.6-33.8-41.9-35.5c-22-1.8-41.8,15.5-50.5,35.7s-8.7,43-9.2,65
				c-0.3,14-1,28.4-7.3,40.9c-5.6,11.1-16.7,20.6-29.6,20.3c-16.5-0.3-27.1-15.1-31.3-29.6c-3.9-13.6-4.1-28-8.3-41.5
				c-5.7-18.1-22.4-28-37.7-13c-16.8,16.5-7.2,42.8-2,62.2c6.8,24.9,16.1,49.7,32.1,70.2C489.3,265,492.4,268.5,495.6,271.8z"/>
			<path class="st38" d="M890.2,441.4c-9.3-29.7-31.4-53.9-50.1-78c-10.8-14-21.1-28.4-29.7-43.8c-8.7-15.6-32.1-49.3-6.7-62
				c12.1-6.1,25.7-8.9,37.6-15.4c25.3-13.9,39.4-43.8,37.6-72.1c-1.9-29.3-19.5-56.3-43-72.9c-33.4-23.5-83-26.1-113.4,1.1
				c-20.8,18.5-29.5,46-35.9,72.4c-0.7,2.7-1.3,5.5-2,8.2c-8,34.3-14.6,68.9-23.2,103c-3.7,14.5-9.7,28-17.6,40.7
				c-6.6,10.7-15.9,20.9-20.6,32.6c-8,19.6,1.1,48.9,26.6,45.3c9.1-1.3,16.6-7.6,22.2-14.7c14.1-18.2,15.5-41.5,24.8-61.9
				c6.9-15.2,24.6-16.6,35.3-4c13.3,15.6,12.7,42.8,16.6,62c4.5,22.4,10.5,44.9,21.6,65c13.3,24.1,37.1,46,65.2,50.2
				c15.3,2.3,33-1,45-11.2C893.6,474.9,895.2,457.3,890.2,441.4z M784.8,191c-2.6-0.1-5.3-0.4-7.9-1c-3.9-0.8-9.1-2.7-10-7.1
				c0-0.2-0.1-0.4-0.1-0.5c-0.6-4.2,1.9-9.6,4.1-13.1c2.5-3.8,6.3-6.7,11.1-5.7c5,1,9.8,4.5,12.9,8.4c3.6,4.4,5.2,11.2,1.5,15.4
				C793.7,190.6,789,191.2,784.8,191z"/>
			<path class="st38" d="M972,308.3c-16.3-2.9-32,6.2-46.9,13.5c-6.7,3.3-13.8,6.3-21.2,6.7s-15.5-2.6-19.4-9
				c-4.9-8-1.7-18.1,6-22.6c7.3-4.3,15-1.5,22.9-1.9c16-0.8,37.3-5.2,45.6-20.5c2.9-5.3,3.9-11.6,3.6-17.7
				c-1.4-23.8-24.7-42.9-48.5-43.4c-23.8-0.5-46.3,14.9-58.2,35.5c-11.9,20.6-14.5,45.7-11.5,69.3c4.1,33,21.1,67.2,51.9,79.8
				c9.5,3.9,19.9,5.5,30.2,5.9c17.8,0.6,36.1-2.9,50.9-12.7c14.8-9.8,25.5-26.7,25.2-44.4C1002.4,329,989.5,311.4,972,308.3z
				 M901.9,257.5c0.8-3.7,4-6.5,7.6-7.8c2.4-0.9,5.1-1.1,7.5-0.4c2.5,0.7,4.6,2.5,5.5,5c1.3,3.8-1,8.1-4.5,10.2
				C912.3,267.8,899.9,267.3,901.9,257.5z"/>
			<path class="st38" d="M976.7,280.8c0.6,8.6,2,18.1,8.5,23.7c4.2,3.6,9.7,5,15,6.3c11.3,2.7,26.1,4.1,32-6
				c3.2-5.4,2.3-12.2,1.5-18.4c-1.6-12.7-2.2-26,2.8-37.7c5-11.7,17-21.4,29.7-19.8c9.9,1.2,18.1,9,21.9,18.2
				c3.8,9.2,3.9,19.5,2.4,29.4c-3.7,25.4-16.9,49.1-18.2,74.8c-0.3,4.8,0,9.9,2.5,14.1c2.4,4.1,6.7,6.7,11,8.7
				c22.8,10.5,51,5.6,71.2-9.3c20.2-14.9,32.8-38.6,37.6-63.2s2.3-50.2-3.5-74.6c-3.3-14-7.8-28-16.2-39.8
				c-14.3-20-39.1-31.4-63.7-31.4c-19.9,0-38.9,7-54.9,18.7c-8.1,5.9-15.5,12.9-22.1,20.4c-3.6,4-15,18.7-21.3,13.2
				c-1.4-1.2-1.9-3.2-1.7-5.1c1-10.2,14.7-30.7,1.2-37.8c-2.6-1.4-5.7-1.4-8.7-1.1c-6.5,0.5-13.3,2.2-17.8,6.9
				c-5.6,5.8-4.2,14.7-4.4,22c-0.3,14.1-3.4,27.9-4.5,41.9C975.7,250,975.6,265.4,976.7,280.8z"/>
			<path class="st38" d="M1289.6,157.5c-21.1-6.6-44-1.5-61.2,13c-20.3,17-26.4,41.1-25.5,66.7c0.4,12.5,2,25,2.4,37.5
				c1.2,35.2-16.8,67.8-30.7,100.2c-11.2,26,10.2,45.1,32.4,54.4c29.3,12.3,62.4,11.3,90.8-2.9c23.9-11.9,49.5-31.6,57.7-58.4
				c3.8-12.4,3.7-27-6.1-36.7c-9.8-9.7-24.6-8.9-35.4-1.4c-14.5,10-30.1,32-49.4,18.5c-19.7-13.8-18.3-44.1-13.4-64.7
				c5-20.8,11.1-45.5,26.7-60.9c4.1-4.1,10.4-9.4,15.8-4.1c4.8,4.7,5.2,13,7.2,19.1c4,12.5,9.7,26.9,25.7,22.7
				c22.9-6,21.7-33.7,14.8-51.8c-7.9-20.7-23.7-38.8-44.1-48.2C1294.7,159.2,1292.2,158.3,1289.6,157.5z"/>
			<path class="st38" d="M1545.7,314c-1.1-62.8-33.3-118.4-79.4-113.6c-42.3,4.5-52.9,84.2-47.1,132.4c1.3,10.6,3.1,21.2,6.5,30.8
				c8.6,24.3,26.8,39.3,45.5,43.7c24.9,6,53.2-7.1,66.1-38.6C1544,352.5,1546,332.9,1545.7,314z M1491.5,322.1
				c-1.3,5.4-4,13.4-8.3,14.6c-6.5,1.8-9.7-10.1-11.1-17.1c-2.2-10.6-2-22.3,1-32.5c7.9-27.3,17.8-8.6,19.9,12.3
				C1493.7,306.9,1493.3,314.9,1491.5,322.1z"/>
			<path class="st38" d="M1361.3,308.3c-1,9.2-1.7,18.7,0.2,27.8c1.9,9.1,6.8,18,14.8,22.8c8,4.8,19.2,4.6,25.8-2
				c5.2-5.2,6.6-12.9,7.3-20.2c1-10.5,0.8-21.1,0.7-31.7c-0.2-12.8-0.4-25.9-4.1-38.2c-1.7-5.6-4.2-11.2-8.3-15.5
				c-9.4-10-26.4-9.4-28.1,5.6C1367.5,274,1363.1,291,1361.3,308.3z"/>
			<path class="st38" d="M1369.6,195.8c-3.1,3.1-5.3,7.1-6.1,11.5c-1.3,7.2,1.1,14.8,5.8,20.4c6,7,16.4,10.8,25.3,7.7
				c10.1-3.5,15.4-15.4,11.8-25.3c-2.7-7.3-7.2-14.2-14-18.1C1384.5,187.3,1375.5,189.9,1369.6,195.8z"/>
			<path class="st38" d="M501.2,356.5c-3.1-64-39.1-121-74.7-174.3c-19.2-28.7-48.7-50-84.4-32.5c-28.1,13.9-49.9,57.6-66.2,82.9
				c-5,7.7-9.9,15.8-11.1,24.9c-1.2,9.1,2.4,19.5,10.7,23.4c4.7,2.2,10.1,2.1,15.2,1.3c12.8-2.1,24.5-8.7,36.9-12.7
				c12.4-4.1,27-5.2,37.5,2.6c9.9,7.4,13.2,20.6,15.8,32.6c3.2,14.9,6.4,29.8,9.7,44.7c4.1,19.2,8.5,38.9,19.5,55.1
				c11,16.3,30.3,28.5,49.7,25.2c15.2-2.6,27.7-14.3,34.3-28.2C500.6,387.7,501.9,371.9,501.2,356.5z M377.1,216.5
				c-0.5,4-2.5,8-5.9,10.2c-3.8,2.5-9.6,2.4-12.7-1.3c-3.2-3.8-3.3-9.8-2.7-14.2c0.9-6.2,4-12.2,8.8-13.9c4.9-1.7,8.7,3.5,10.3,7.3
				C376.6,208.4,377.6,212.5,377.1,216.5z"/>
		</g>
		<g id="Fonty_8_">
			<path class="st39" d="M135,134.1c-14.9,17.9-23.2,40-31.9,61.3c-16.6,40.6-43,77.3-54,120.1c-3.9,15-5.4,30.6-4.1,46
				c2,23.9,12.6,46.4,32,61c15.9,12,35,16,54.1,19.9c57.8,11.7,118,9.8,173.7-11.6c24.1-9.2,43.9-21.7,53.2-46.9
				c10.6-28.7,8.6-66.2-16.7-83.4c-11.5-7.8-25.7-10.1-39.4-8.8c-33.9,3.3-81.5,38.2-113.5,14.6c-11.3-8.3-15.6-22.1-15.5-35.6
				c0.2-17.3,6.7-34.4,11.5-50.7c5.3-18.2,11.2-36.3,16.8-54.4c4.6-15,10.2-37.6-3.9-49.7c-17.9-15.3-40.6-3.3-55.1,10.6
				C139.5,128.9,137.2,131.4,135,134.1z"/>
			<path class="st39" d="M487.3,263.7c4.3,4.4,9,8.4,14.2,12.1c30.3,21.8,73.2,29.2,107.2,11.6c40.2-20.8,58.2-66.9,63.8-109.5
				c1.4-10.8,2-21.8,2.3-32.7c0.8-23.9,2.5-48.9-6.3-71.6c-7.2-18.4-23.3-34.8-43-36.4c-22.6-1.9-43,15.9-51.9,36.7
				s-9,44.2-9.5,66.8c-0.3,14.3-1,29.2-7.5,42c-5.7,11.4-17.1,21.1-30.4,20.9c-17-0.3-27.8-15.5-32.1-30.4
				c-4-13.9-4.2-28.8-8.5-42.6c-5.8-18.6-23-28.7-38.7-13.4c-17.2,16.9-7.4,44-2,63.8c6.9,25.5,16.6,51,33,72.1
				C480.8,256.7,484,260.3,487.3,263.7z"/>
			<path class="st39" d="M892.5,437.9c-9.5-30.5-32.2-55.3-51.4-80.1c-11.1-14.3-21.6-29.2-30.5-45c-9-16.1-32.9-50.6-6.9-63.7
				c12.4-6.2,26.4-9.1,38.6-15.8c26-14.2,40.5-44.9,38.6-74c-1.9-30.1-20-57.8-44.2-74.8c-34.3-24.1-85.2-26.8-116.4,1.1
				c-21.3,19-30.3,47.3-36.9,74.4c-0.7,2.8-1.4,5.6-2,8.4c-8.2,35.2-15,70.7-23.9,105.8c-3.8,14.9-10,28.8-18.1,41.8
				c-6.8,11-16.3,21.4-21.2,33.5c-8.2,20.1,1.1,50.2,27.3,46.5c9.4-1.3,17.1-7.8,22.8-15.1c14.5-18.6,16-42.6,25.4-63.5
				c7-15.6,25.2-17,36.2-4.1c13.6,16,13,43.9,17,63.7c4.6,23,10.8,46.1,22.2,66.8c13.7,24.7,38.1,47.2,66.9,51.5
				c15.7,2.4,33.8-1.1,46.2-11.5C896,472.3,897.6,454.2,892.5,437.9z M784.2,180.7c-2.7-0.1-5.4-0.5-8.1-1c-4-0.8-9.3-2.7-10.3-7.3
				c0-0.2-0.1-0.4-0.1-0.6c-0.6-4.3,1.9-9.8,4.2-13.4c2.5-4,6.5-6.9,11.4-5.9c5.1,1.1,10,4.6,13.3,8.6c3.7,4.5,5.4,11.5,1.6,15.9
				C793.4,180.3,788.5,180.9,784.2,180.7z"/>
			<path class="st39" d="M976.5,301.2c-16.8-3-32.9,6.4-48.1,13.9c-6.9,3.4-14.1,6.5-21.8,6.8c-7.7,0.3-15.9-2.7-19.9-9.2
				c-5-8.2-1.8-18.5,6.2-23.3c7.5-4.4,15.4-1.6,23.5-1.9c16.4-0.8,38.3-5.4,46.8-21.1c3-5.5,4-11.9,3.7-18.1
				c-1.4-24.5-25.3-44.1-49.8-44.6c-24.5-0.5-47.5,15.3-59.7,36.5c-12.2,21.2-14.9,46.9-11.8,71.2c4.2,33.9,21.7,69,53.3,81.9
				c9.8,4,20.4,5.7,31,6c18.2,0.6,37-3,52.2-13.1c15.2-10.1,26.2-27.4,25.9-45.6C1007.7,322.4,994.5,304.4,976.5,301.2z M904.5,249
				c0.8-3.8,4.2-6.7,7.8-8c2.5-0.9,5.2-1.2,7.7-0.4s4.8,2.6,5.6,5.1c1.4,3.9-1.1,8.4-4.6,10.5C915.1,259.6,902.4,259.1,904.5,249z"
				/>
			<path class="st39" d="M981.3,272.9c0.6,8.9,2,18.6,8.8,24.4c4.3,3.7,10,5.1,15.4,6.4c11.7,2.8,26.8,4.2,32.8-6.1
				c3.2-5.6,2.3-12.5,1.5-18.9c-1.6-13-2.2-26.7,2.9-38.7c5.1-12.1,17.5-21.9,30.5-20.3c10.1,1.3,18.6,9.2,22.5,18.7
				s4,20.1,2.5,30.2c-3.8,26.1-17.3,50.4-18.7,76.8c-0.3,5,0,10.2,2.5,14.4c2.5,4.2,6.9,6.9,11.3,8.9c23.4,10.7,52.3,5.7,73.1-9.5
				c20.8-15.3,33.7-39.6,38.6-64.9s2.3-51.6-3.6-76.7c-3.4-14.4-8-28.8-16.6-40.8c-14.6-20.6-40.2-32.3-65.5-32.2
				c-20.5,0-39.9,7.2-56.4,19.2c-8.3,6.1-15.9,13.2-22.7,20.9c-3.7,4.1-15.4,19.2-21.9,13.5c-1.4-1.3-1.9-3.3-1.8-5.2
				c1-10.5,15.1-31.5,1.2-38.9c-2.7-1.4-5.9-1.4-8.9-1.2c-6.7,0.5-13.6,2.3-18.3,7.1c-5.8,6-4.3,15.1-4.5,22.6
				c-0.3,14.5-3.5,28.6-4.6,43C980.3,241.3,980.2,257.2,981.3,272.9z"/>
			<path class="st39" d="M1302.7,146.3c-21.7-6.8-45.1-1.5-62.9,13.4c-20.8,17.5-27.1,42.2-26.2,68.5c0.5,12.8,2,25.6,2.5,38.5
				c1.2,36.2-17.2,69.7-31.5,102.9c-11.5,26.7,10.5,46.3,33.2,55.9c30.1,12.6,64,11.6,93.2-3c24.6-12.3,50.8-32.4,59.3-60
				c3.9-12.8,3.9-27.8-6.3-37.7c-10.1-10-25.2-9.2-36.4-1.4c-14.8,10.3-31,32.9-50.7,19c-20.2-14.2-18.8-45.3-13.8-66.4
				c5.1-21.3,11.4-46.7,27.5-62.6c4.2-4.2,10.6-9.6,16.2-4.2c4.9,4.8,5.4,13.4,7.4,19.6c4.1,12.9,9.9,27.6,26.3,23.3
				c23.6-6.2,22.3-34.6,15.2-53.2c-8.1-21.2-24.4-39.9-45.2-49.5C1307.9,148.2,1305.3,147.2,1302.7,146.3z"/>
			<path class="st39" d="M1565.6,307c-1.1-64.5-34.2-121.6-81.5-116.6c-43.4,4.6-54.3,86.4-48.3,136c1.3,10.9,3.1,21.8,6.6,31.6
				c8.8,25,27.6,40.3,46.7,44.9c25.6,6.1,54.6-7.3,67.9-39.6C1563.8,346.6,1565.9,326.5,1565.6,307z M1510,315.4
				c-1.3,5.5-4.1,13.7-8.5,15c-6.6,1.9-9.9-10.4-11.4-17.6c-2.2-10.9-2-22.9,1-33.4c8.1-28,18.3-8.8,20.4,12.6
				C1512.2,299.8,1511.8,307.9,1510,315.4z"/>
			<path class="st39" d="M1376.2,301.2c-1,9.5-1.8,19.2,0.2,28.5c2,9.3,7,18.4,15.2,23.4c8.2,4.9,19.8,4.7,26.5-2.1
				c5.3-5.3,6.8-13.2,7.5-20.7c1-10.8,0.9-21.7,0.7-32.6c-0.2-13.2-0.4-26.6-4.2-39.2c-1.8-5.8-4.4-11.5-8.5-15.9
				c-9.7-10.3-27.1-9.7-28.9,5.7C1382.6,266,1378.1,283.4,1376.2,301.2z"/>
			<path class="st39" d="M1384.7,185.7c-3.1,3.2-5.4,7.3-6.2,11.8c-1.4,7.4,1.1,15.2,6,20.9c6.1,7.2,16.8,11.1,26,7.9
				c10.3-3.6,15.9-15.8,12.1-26c-2.7-7.5-7.4-14.6-14.4-18.6C1400,177,1390.8,179.6,1384.7,185.7z"/>
			<path class="st39" d="M493.1,350.7c-3.1-65.7-40.2-124.3-76.7-179c-19.7-29.5-50-51.4-86.6-33.3c-28.9,14.2-51.2,59.1-68,85.1
				c-5.1,7.9-10.2,16.3-11.4,25.6c-1.2,9.4,2.5,20,11,24.1c4.8,2.3,10.3,2.2,15.6,1.3c13.2-2.2,25.1-8.9,37.9-13.1
				c12.7-4.2,27.8-5.4,38.5,2.6c10.2,7.6,13.5,21.1,16.2,33.5c3.3,15.3,6.6,30.6,9.9,45.9c4.3,19.7,8.7,39.9,20,56.6
				c11.3,16.7,31.1,29.2,51,25.9c15.6-2.6,28.5-14.7,35.2-29C492.4,382.8,493.8,366.5,493.1,350.7z M365.6,207
				c-0.5,4.1-2.6,8.2-6.1,10.5c-3.9,2.5-9.9,2.4-13-1.3c-3.2-3.9-3.4-10-2.7-14.6c1-6.4,4.1-12.5,9.1-14.2c5.1-1.8,8.9,3.6,10.6,7.5
				C365.1,198.6,366.1,202.8,365.6,207z"/>
		</g>
		<g id="Fonty_7_">
			<path class="st40" d="M117.4,121.6c-15.3,18.4-23.8,41-32.7,62.9c-17,41.7-44.1,79.3-55.5,123.2c-4,15.4-5.5,31.4-4.2,47.2
				c2,24.5,12.9,47.6,32.8,62.6c16.3,12.3,35.9,16.5,55.6,20.4c59.3,12,121,10,178.2-11.9c24.7-9.5,45-22.2,54.6-48.1
				c10.9-29.4,8.9-68-17.1-85.6c-11.8-8-26.4-10.4-40.4-9c-34.8,3.4-83.6,39.2-116.5,14.9c-11.6-8.5-16-22.6-15.9-36.5
				c0.2-17.7,6.8-35.2,11.8-52.1c5.5-18.7,11.5-37.2,17.3-55.9c4.8-15.4,10.5-38.6-4-51c-18.3-15.7-41.7-3.3-56.6,10.8
				C122.1,116.3,119.7,118.9,117.4,121.6z"/>
			<path class="st40" d="M479,254.6c4.4,4.5,9.3,8.7,14.5,12.4c31.1,22.4,75.1,29.9,110,11.9c41.3-21.4,59.7-68.7,65.4-112.4
				c1.4-11.1,2-22.4,2.4-33.5c0.8-24.5,2.6-50.1-6.5-73.5c-7.4-18.9-23.9-35.7-44.1-37.4c-23.1-1.9-44.1,16.3-53.2,37.7
				s-9.2,45.3-9.7,68.5c-0.3,14.7-1.1,30-7.7,43.1c-5.9,11.7-17.6,21.7-31.2,21.4c-17.4-0.3-28.5-15.9-33-31.2
				c-4.2-14.3-4.3-29.5-8.7-43.7c-6-19.1-23.6-29.5-39.7-13.7c-17.7,17.4-7.6,45.1-2.1,65.5c7.1,26.2,17,52.4,33.9,73.9
				C472.4,247.5,475.6,251.1,479,254.6z"/>
			<path class="st40" d="M894.8,433.4c-9.8-31.3-33.1-56.7-52.8-82.2c-11.4-14.7-22.2-29.9-31.3-46.2c-9.2-16.5-33.8-52-7-65.4
				c12.8-6.4,27.1-9.4,39.6-16.2c26.7-14.6,41.5-46.1,39.6-76c-2-30.9-20.5-59.3-45.3-76.8c-35.1-24.8-87.4-27.5-119.5,1.2
				c-21.9,19.5-31,48.5-37.9,76.3c-0.7,2.9-1.4,5.8-2.1,8.7c-8.5,36.1-15.4,72.6-24.5,108.5c-3.9,15.3-10.3,29.5-18.5,42.9
				c-7,11.3-16.7,22-21.7,34.3c-8.4,20.7,1.1,51.5,28,47.7c9.6-1.3,17.5-8,23.4-15.5c14.9-19.1,16.4-43.8,26.1-65.2
				c7.2-16,25.9-17.5,37.1-4.3c14,16.4,13.4,45.1,17.5,65.3c4.8,23.6,11,47.3,22.8,68.5c14,25.4,39.1,48.5,68.7,52.9
				c16.1,2.4,34.7-1.1,47.5-11.8C898.3,468.7,900,450.1,894.8,433.4z M783.7,169.5c-2.8-0.1-5.6-0.5-8.3-1
				c-4.1-0.8-9.6-2.8-10.5-7.5c0-0.2-0.1-0.4-0.1-0.6c-0.6-4.5,2-10.1,4.3-13.8c2.6-4.1,6.7-7.1,11.7-6c5.2,1.1,10.3,4.8,13.6,8.8
				c3.8,4.6,5.5,11.8,1.6,16.3C793.1,169.1,788.1,169.7,783.7,169.5z"/>
			<path class="st40" d="M981,293.1c-17.2-3-33.7,6.6-49.4,14.3c-7.1,3.5-14.5,6.7-22.4,7s-16.3-2.7-20.5-9.4
				c-5.2-8.4-1.8-19,6.4-23.9c7.7-4.6,15.8-1.6,24.1-2c16.8-0.8,39.3-5.5,48.1-21.6c3.1-5.6,4.1-12.2,3.8-18.6
				c-1.5-25.1-26-45.2-51.1-45.8c-25.1-0.6-48.7,15.7-61.3,37.5c-12.6,21.8-15.2,48.1-12.1,73.1c4.3,34.8,22.3,70.8,54.7,84.1
				c10,4.1,20.9,5.8,31.8,6.2c18.7,0.6,38-3.1,53.6-13.4c15.6-10.4,26.9-28.1,26.6-46.8C1013,314.9,999.4,296.4,981,293.1z
				 M907.1,239.6c0.8-3.9,4.3-6.9,8-8.2c2.5-0.9,5.4-1.2,7.9-0.4c2.6,0.8,4.9,2.7,5.8,5.2c1.4,4-1.1,8.6-4.8,10.7
				C918,250.4,905,249.9,907.1,239.6z"/>
			<path class="st40" d="M985.9,264.1c0.6,9.1,2.1,19.1,9,25c4.4,3.8,10.2,5.2,15.8,6.6c12,2.9,27.5,4.4,33.7-6.3
				c3.3-5.7,2.4-12.8,1.5-19.4c-1.7-13.3-2.3-27.4,3-39.7c5.3-12.4,17.9-22.5,31.3-20.9c10.4,1.3,19.1,9.5,23.1,19.1
				c4.1,9.7,4.1,20.6,2.6,31c-3.9,26.8-17.8,51.8-19.2,78.8c-0.3,5.1,0,10.4,2.6,14.8c2.5,4.3,7,7.1,11.6,9.2c24,11,53.7,5.9,75-9.8
				c21.3-15.7,34.6-40.7,39.6-66.6c5-26,2.4-52.9-3.7-78.7c-3.5-14.8-8.2-29.5-17-41.9c-15-21.1-41.2-33.1-67.2-33.1
				c-21,0-41,7.4-57.9,19.7c-8.6,6.2-16.3,13.6-23.3,21.5c-3.8,4.2-15.8,19.7-22.4,13.9c-1.5-1.3-2-3.4-1.8-5.4
				c1-10.8,15.5-32.3,1.2-39.9c-2.8-1.5-6-1.5-9.2-1.2c-6.8,0.6-14,2.3-18.8,7.3c-6,6.1-4.4,15.5-4.6,23.2
				c-0.3,14.9-3.6,29.4-4.7,44.1C984.8,231.7,984.8,247.9,985.9,264.1z"/>
			<path class="st40" d="M1315.7,134.2c-22.2-7-46.3-1.6-64.5,13.7c-21.3,18-27.8,43.3-26.9,70.3c0.5,13.2,2.1,26.3,2.5,39.5
				c1.2,37.1-17.7,71.5-32.4,105.6c-11.8,27.4,10.8,47.6,34.1,57.3c30.9,12.9,65.7,11.9,95.7-3.1c25.2-12.6,52.2-33.3,60.8-61.5
				c4-13.1,4-28.5-6.4-38.7c-10.4-10.2-25.9-9.4-37.3-1.5c-15.2,10.6-31.8,33.7-52,19.5c-20.7-14.6-19.3-46.5-14.2-68.2
				c5.2-21.9,11.7-47.9,28.2-64.2c4.4-4.3,10.9-9.9,16.6-4.3c5.1,5,5.5,13.7,7.5,20.1c4.2,13.2,10.2,28.3,27,23.9
				c24.2-6.4,22.8-35.5,15.6-54.6c-8.3-21.8-25-40.9-46.4-50.8C1321,136.1,1318.4,135,1315.7,134.2z"/>
			<path class="st40" d="M1585.5,299.1c-1.1-66.2-35.1-124.8-83.6-119.7c-44.5,4.7-55.7,88.7-49.6,139.5c1.4,11.2,3.2,22.4,6.8,32.5
				c9.1,25.6,28.3,41.4,47.9,46.1c26.2,6.3,56.1-7.5,69.6-40.7C1583.7,339.6,1585.8,319.1,1585.5,299.1z M1528.4,307.7
				c-1.4,5.7-4.2,14.1-8.7,15.4c-6.8,1.9-10.2-10.6-11.7-18.1c-2.3-11.1-2.1-23.5,1-34.2c8.3-28.8,18.8-9,20.9,12.9
				C1530.7,291.7,1530.2,300,1528.4,307.7z"/>
			<path class="st40" d="M1391.1,293.1c-1.1,9.7-1.8,19.7,0.2,29.3s7.2,18.9,15.6,24c8.4,5.1,20.3,4.8,27.2-2.1
				c5.4-5.4,7-13.6,7.7-21.3c1-11.1,0.9-22.3,0.7-33.4c-0.2-13.5-0.4-27.3-4.4-40.2c-1.8-5.9-4.5-11.8-8.7-16.3
				c-9.9-10.5-27.8-9.9-29.6,5.9C1397.7,257,1393.1,274.9,1391.1,293.1z"/>
			<path class="st40" d="M1399.9,174.6c-3.2,3.2-5.6,7.4-6.4,12.1c-1.4,7.6,1.1,15.6,6.1,21.4c6.3,7.4,17.2,11.4,26.7,8.1
				c10.6-3.7,16.3-16.2,12.5-26.7c-2.8-7.7-7.5-14.9-14.8-19.1C1415.6,165.7,1406.1,168.3,1399.9,174.6z"/>
			<path class="st40" d="M484.9,343.9c-3.2-67.4-41.2-127.5-78.7-183.6c-20.2-30.3-51.4-52.7-88.9-34.2
				c-29.6,14.6-52.6,60.7-69.7,87.4c-5.2,8.1-10.5,16.7-11.7,26.3c-1.3,9.6,2.6,20.5,11.3,24.7c4.9,2.3,10.6,2.2,16,1.4
				c13.5-2.2,25.8-9.1,38.8-13.4c13-4.3,28.5-5.5,39.5,2.7c10.5,7.8,13.9,21.7,16.7,34.4c3.4,15.7,6.8,31.4,10.2,47.1
				c4.4,20.2,9,41,20.5,58.1c11.6,17.1,31.9,30,52.3,26.6c16-2.7,29.2-15.1,36.1-29.7C484.3,376.8,485.7,360.1,484.9,343.9z
				 M354.1,196.4c-0.5,4.3-2.7,8.4-6.3,10.8c-4,2.6-10.1,2.5-13.3-1.4c-3.3-4-3.5-10.3-2.8-15c1-6.6,4.3-12.8,9.3-14.6
				c5.2-1.8,9.2,3.7,10.9,7.7C353.6,187.8,354.6,192.2,354.1,196.4z"/>
		</g>
		<g id="Fonty_6_">
			<path class="st41" d="M97,103.6c-15.8,19-24.5,42.3-33.7,64.8C45.8,211.3,17.9,250,6.2,295.3c-4.1,15.9-5.7,32.3-4.3,48.6
				c2.1,25.2,13.3,49,33.8,64.5c16.8,12.7,37,16.9,57.2,21.1c61.1,12.4,124.6,10.3,183.5-12.2c25.5-9.8,46.3-22.9,56.2-49.6
				c11.2-30.3,9.1-70-17.6-88.1c-12.2-8.3-27.2-10.7-41.6-9.3c-35.8,3.5-86.1,40.3-120,15.4c-11.9-8.8-16.5-23.3-16.4-37.6
				c0.2-18.3,7-36.3,12.1-53.6c5.6-19.3,11.9-38.4,17.8-57.5c4.9-15.8,10.8-39.7-4.1-52.5c-18.9-16.2-42.9-3.4-58.2,11.2
				C101.8,98.1,99.3,100.8,97,103.6z"/>
			<path class="st41" d="M469.3,240.5c4.6,4.6,9.5,8.9,15,12.8c32,23.1,77.4,30.8,113.3,12.2c42.5-22,61.5-70.7,67.4-115.7
				c1.5-11.4,2.1-23,2.5-34.5c0.8-25.2,2.7-51.6-6.7-75.7c-7.6-19.5-24.6-36.7-45.4-38.5c-23.8-2-45.4,16.8-54.8,38.8
				s-9.5,46.7-10,70.6c-0.3,15.2-1.1,30.9-7.9,44.4c-6.1,12-18.1,22.3-32.1,22c-18-0.3-29.4-16.4-33.9-32.2c-4.3-14.7-4.4-30.4-9-45
				c-6.1-19.7-24.3-30.3-40.9-14.1c-18.2,17.9-7.9,46.5-2.2,67.4c7.3,27,17.5,53.9,34.9,76.1C462.5,233.2,465.8,237,469.3,240.5z"/>
			<path class="st41" d="M897.4,424.6c-10.1-32.2-34-58.4-54.3-84.6c-11.7-15.1-22.9-30.8-32.2-47.6c-9.5-17-34.8-53.5-7.3-67.3
				c13.1-6.6,27.9-9.7,40.8-16.7c27.4-15.1,42.7-47.5,40.8-78.2c-2-31.8-21.1-61.1-46.7-79.1c-36.2-25.5-90-28.3-123,1.2
				c-22.5,20.1-32,49.9-39,78.6c-0.7,3-1.4,6-2.1,8.9c-8.7,37.2-15.8,74.7-25.2,111.8c-4,15.8-10.6,30.4-19.1,44.2
				c-7.2,11.6-17.2,22.6-22.4,35.4c-8.6,21.3,1.2,53,28.8,49.2c9.9-1.4,18.1-8.2,24-15.9c15.3-19.7,16.9-45.1,26.9-67.1
				c7.4-16.5,26.7-18,38.3-4.4c14.4,16.9,13.8,46.4,18,67.3c4.9,24.3,11.4,48.7,23.5,70.6c14.5,26.1,40.2,49.9,70.7,54.5
				c16.6,2.5,35.8-1.1,48.9-12.1C901.1,460.9,902.8,441.8,897.4,424.6z M783,152.9c-2.9-0.1-5.7-0.5-8.6-1.1
				c-4.2-0.9-9.9-2.9-10.8-7.7c0-0.2-0.1-0.4-0.1-0.6c-0.6-4.6,2-10.4,4.5-14.2c2.7-4.2,6.9-7.3,12-6.2c5.4,1.1,10.6,4.9,14,9.1
				c3.9,4.7,5.7,12.2,1.6,16.8C792.7,152.5,787.6,153.1,783,152.9z"/>
			<path class="st41" d="M986.2,280.2c-17.7-3.1-34.7,6.8-50.9,14.7c-7.3,3.6-14.9,6.9-23,7.2c-8.1,0.3-16.8-2.8-21.1-9.7
				c-5.3-8.6-1.9-19.6,6.5-24.6c7.9-4.7,16.3-1.6,24.9-2.1c17.4-0.9,40.5-5.7,49.5-22.3c3.2-5.8,4.3-12.6,3.9-19.2
				c-1.5-25.8-26.8-46.6-52.6-47.1c-25.9-0.6-50.2,16.1-63.1,38.6c-12.9,22.4-15.7,49.6-12.5,75.2c4.5,35.8,22.9,72.9,56.4,86.6
				c10.3,4.2,21.6,6,32.7,6.4c19.3,0.6,39.1-3.2,55.2-13.8c16.1-10.7,27.7-28.9,27.4-48.2C1019.2,302.6,1005.2,283.5,986.2,280.2z
				 M910.1,225c0.8-4.1,4.4-7.1,8.3-8.5c2.6-0.9,5.5-1.2,8.2-0.4c2.7,0.8,5,2.7,6,5.4c1.4,4.1-1.1,8.8-4.9,11.1
				C921.4,236.2,908,235.7,910.1,225z"/>
			<path class="st41" d="M991.2,250.3c0.6,9.4,2.1,19.6,9.2,25.8c4.5,3.9,10.5,5.4,16.3,6.8c12.3,3,28.3,4.5,34.7-6.5
				c3.4-5.9,2.4-13.2,1.6-20c-1.7-13.7-2.4-28.2,3.1-40.9c5.4-12.7,18.4-23.2,32.2-21.5c10.7,1.3,19.6,9.8,23.8,19.7
				c4.2,10,4.2,21.2,2.7,31.9c-4.1,27.6-18.3,53.3-19.8,81.2c-0.3,5.2,0,10.8,2.7,15.3c2.6,4.4,7.2,7.3,11.9,9.4
				c24.8,11.3,55.3,6.1,77.2-10.1c21.9-16.2,35.6-41.9,40.8-68.6c5.2-26.7,2.4-54.5-3.8-81c-3.6-15.2-8.5-30.4-17.5-43.1
				c-15.5-21.8-42.5-34.1-69.2-34.1c-21.6,0-42.2,7.6-59.6,20.2c-8.8,6.4-16.8,14-24,22.1c-3.9,4.4-16.2,20.3-23.1,14.3
				c-1.5-1.3-2.1-3.5-1.9-5.5c1.1-11.1,16-33.3,1.3-41.1c-2.8-1.5-6.2-1.5-9.4-1.2c-7,0.6-14.4,2.4-19.3,7.5
				c-6.1,6.3-4.6,16-4.7,23.9c-0.3,15.3-3.7,30.2-4.9,45.4C990.2,216.9,990.1,233.7,991.2,250.3z"/>
			<path class="st41" d="M1330.8,116.5c-22.9-7.2-47.7-1.6-66.4,14.1c-22,18.5-28.7,44.6-27.7,72.4c0.5,13.6,2.2,27.1,2.6,40.7
				c1.2,38.2-18.2,73.6-33.3,108.7c-12.1,28.2,11.1,49,35.1,59c31.8,13.3,67.7,12.2,98.5-3.1c26-12.9,53.7-34.3,62.7-63.4
				c4.1-13.5,4.1-29.3-6.6-39.9c-10.7-10.5-26.6-9.7-38.4-1.5c-15.7,10.9-32.7,34.7-53.6,20.1c-21.4-15-19.9-47.9-14.6-70.2
				c5.4-22.6,12-49.4,29-66.1c4.5-4.4,11.2-10.2,17.1-4.4c5.2,5.1,5.7,14.1,7.8,20.7c4.3,13.6,10.5,29.2,27.8,24.6
				c24.9-6.6,23.5-36.5,16-56.2c-8.5-22.4-25.7-42.1-47.8-52.3C1336.4,118.5,1333.6,117.4,1330.8,116.5z"/>
			<path class="st41" d="M1608.7,286.4c-1.1-68.2-36.1-128.5-86.1-123.2c-45.9,4.8-57.4,91.3-51.1,143.7c1.4,11.5,3.3,23,7,33.4
				c9.3,26.4,29.1,42.6,49.3,47.4c27,6.5,57.7-7.7,71.7-41.9C1606.8,328.1,1609,306.9,1608.7,286.4z M1549.9,295.2
				c-1.4,5.8-4.4,14.5-9,15.8c-7,2-10.5-11-12.1-18.6c-2.4-11.5-2.1-24.2,1-35.3c8.5-29.6,19.3-9.3,21.6,13.3
				C1552.3,278.7,1551.8,287.3,1549.9,295.2z"/>
			<path class="st41" d="M1408.6,280.2c-1.1,10-1.9,20.3,0.2,30.1s7.4,19.5,16,24.7c8.6,5.2,20.9,4.9,28-2.2
				c5.6-5.6,7.2-14,7.9-21.9c1.1-11.4,0.9-22.9,0.7-34.4c-0.2-13.9-0.4-28.1-4.5-41.4c-1.9-6.1-4.6-12.1-9-16.8
				c-10.2-10.8-28.7-10.2-30.5,6C1415.3,243,1410.6,261.4,1408.6,280.2z"/>
			<path class="st41" d="M1417.6,158.1c-3.3,3.3-5.7,7.7-6.6,12.4c-1.4,7.8,1.2,16.1,6.3,22.1c6.5,7.6,17.7,11.7,27.5,8.4
				c10.9-3.8,16.8-16.7,12.8-27.5c-2.9-7.9-7.8-15.4-15.2-19.7C1433.7,148.9,1424,151.7,1417.6,158.1z"/>
			<path class="st41" d="M475.4,332.5c-3.3-69.4-42.4-131.3-81-189.1c-20.8-31.2-52.9-54.3-91.5-35.2c-30.5,15-54.1,62.5-71.8,90
				c-5.4,8.4-10.8,17.2-12.1,27.1c-1.3,9.9,2.6,21.1,11.6,25.4c5.1,2.4,10.9,2.3,16.4,1.4c13.9-2.3,26.6-9.4,40-13.8
				c13.4-4.4,29.3-5.7,40.7,2.8c10.8,8,14.3,22.3,17.1,35.4c3.5,16.2,7,32.4,10.5,48.5c4.5,20.8,9.2,42.2,21.1,59.8
				c11.9,17.6,32.9,30.9,53.9,27.3c16.5-2.8,30.1-15.5,37.2-30.6C474.7,366.4,476.2,349.2,475.4,332.5z M340.7,180.6
				c-0.5,4.4-2.7,8.7-6.4,11.1c-4.2,2.7-10.4,2.6-13.7-1.4c-3.4-4.1-3.6-10.6-2.9-15.4c1-6.8,4.4-13.2,9.6-15.1
				c5.3-1.9,9.5,3.8,11.2,7.9C340.2,171.8,341.3,176.2,340.7,180.6z"/>
		</g>
	</g>
</g>
</svg>
